<svg width="15" height="15" viewBox="0 0 15 15" fill="none" xmlns="http://www.w3.org/2000/svg">
<path d="M14.8411 3.79621C14.6999 3.60788 14.4801 3.49802 14.2447 3.49802H4.34171L3.88658 1.53625C3.80811 1.19098 3.50992 0.955566 3.14895 0.955566H0.841912C0.41817 0.955566 0.0885925 1.30084 0.0885925 1.70889C0.0885925 2.11693 0.433864 2.4779 0.841912 2.4779H2.55258L3.94936 8.47307C4.24754 9.7286 5.34614 10.6075 6.63306 10.6075H11.2628C12.5184 10.6075 13.617 9.75999 13.9308 8.53584L14.9823 4.45536C15.0294 4.21995 14.9823 3.98454 14.8411 3.79621Z" fill="white"/>
<path d="M6.39763 14.0445C7.13438 14.0445 7.73164 13.4472 7.73164 12.7105C7.73164 11.9737 7.13438 11.3765 6.39763 11.3765C5.66088 11.3765 5.06363 11.9737 5.06363 12.7105C5.06363 13.4472 5.66088 14.0445 6.39763 14.0445Z" fill="white"/>
<path d="M11.3727 14.0445C12.1094 14.0445 12.7067 13.4472 12.7067 12.7105C12.7067 11.9737 12.1094 11.3765 11.3727 11.3765C10.6359 11.3765 10.0387 11.9737 10.0387 12.7105C10.0387 13.4472 10.6359 14.0445 11.3727 14.0445Z" fill="white"/>
</svg>
