<svg width="33" height="50" viewBox="0 0 33 50" fill="none" xmlns="http://www.w3.org/2000/svg">
<path fill-rule="evenodd" clip-rule="evenodd" d="M7.39548 50H4.16384C1.86441 50 0 48.1796 0 45.9345V4.06553C0 1.82039 1.86441 0 4.16384 0H7.39548C9.69491 0 11.6215 1.82039 11.6215 4.06553V45.9345C11.6215 48.1796 9.69491 50 7.39548 50ZM28.8362 50H25.5424C23.2429 50 21.3785 48.1796 21.3785 45.9345V4.06553C21.3785 1.82039 23.2429 0 25.5424 0H28.8362C31.1356 0 33 1.82039 33 4.06553V45.9345C33 48.1796 31.1356 50 28.8362 50Z" fill="white"/>
</svg>
