<svg width="46" height="49" viewBox="0 0 46 49" fill="none" xmlns="http://www.w3.org/2000/svg">
<path d="M43.2855 19.8589L7.26523 0.575484C6.53485 0.18056 5.71325 -0.0174252 4.88208 0.00120306C4.05091 0.0198313 3.23912 0.254424 2.52736 0.68167C1.74341 1.15343 1.09755 1.82134 0.65421 2.6188C0.21087 3.41625 -0.014453 4.31535 0.000718529 5.22643V43.7801C-0.0132978 44.6901 0.212575 45.5878 0.65586 46.384C1.09914 47.1803 1.74438 47.8471 2.52736 48.3183C3.23912 48.7456 4.05091 48.9802 4.88208 48.9988C5.71325 49.0174 6.53485 48.8194 7.26523 48.4245L43.2855 29.1477C44.1099 28.6806 44.7953 28.0049 45.2721 27.1892C45.7489 26.3735 46 25.4468 46 24.5033C46 23.5598 45.7489 22.6331 45.2721 21.8173C44.7953 21.0016 44.1099 20.3259 43.2855 19.8589V19.8589Z" fill="white"/>
</svg>
